<?xml version="1.0" encoding="UTF-8"?>
<svg xmlns="http://www.w3.org/2000/svg" id="Layer_1" viewBox="0 0 982 472.26">
  <defs>
    <style>.cls-1{fill:#fff;}.cls-2{fill:#0b28fb;}.cls-3{fill:#34ca8d;}</style>
  </defs>
  <rect class="cls-3" x="745.99" y="239.23" width="195.69" height="81.1"></rect>
  <rect class="cls-3" x="745.99" y="147.81" width="236.01" height="81.1"></rect>
  <g>
    <polygon class="cls-2" points="217.75 68.65 226.23 60.16 236.13 50.27 261.27 25.14 236.13 0 124.36 111.76 149.5 136.9 192.61 93.79 319 220.18 319 169.91 217.75 68.65"></polygon>
    <polygon class="cls-2" points="236.13 421.98 149.64 335.5 124.51 360.64 236.13 472.26 319 389.38 319 339.1 236.13 421.98"></polygon>
    <polygon class="cls-2" points="50.27 236.13 136.93 149.47 111.8 124.33 0 236.13 111.94 348.07 137.08 322.94 50.27 236.13"></polygon>
  </g>
  <g>
    <path d="M358.03,208.69c2.32,0,4.2-.64,5.64-1.91,1.45-1.27,2.2-2.97,2.26-5.08h11.77c-.03,3.19-.9,6.1-2.61,8.75s-4.05,4.71-7.01,6.17c-2.97,1.46-6.25,2.19-9.84,2.19-6.71,0-12.01-2.13-15.89-6.4-3.88-4.27-5.82-10.17-5.82-17.69v-.82c0-7.24,1.93-13.01,5.77-17.32,3.85-4.31,9.13-6.47,15.85-6.47,5.88,0,10.59,1.67,14.13,5.01,3.55,3.34,5.35,7.79,5.41,13.35h-11.77c-.06-2.44-.81-4.43-2.26-5.96s-3.36-2.29-5.73-2.29c-2.92,0-5.13,1.07-6.62,3.2-1.49,2.13-2.24,5.59-2.24,10.37v1.3c0,4.84,.74,8.32,2.21,10.44,1.48,2.12,3.72,3.17,6.73,3.17Z"></path>
    <path d="M383.88,194.01c0-4.66,.9-8.81,2.69-12.46s4.38-6.47,7.75-8.47c3.37-2,7.29-3,11.74-3,6.34,0,11.51,1.94,15.52,5.82,4.01,3.88,6.24,9.15,6.71,15.8l.09,3.21c0,7.21-2.01,12.99-6.04,17.35-4.02,4.36-9.42,6.53-16.2,6.53s-12.18-2.17-16.22-6.51c-4.03-4.34-6.06-10.25-6.06-17.72v-.56Zm12.55,.89c0,4.47,.84,7.88,2.52,10.24,1.68,2.36,4.08,3.54,7.21,3.54s5.41-1.17,7.12-3.5c1.71-2.33,2.56-6.06,2.56-11.2,0-4.38-.85-7.77-2.56-10.18s-4.11-3.61-7.21-3.61-5.44,1.2-7.12,3.59-2.52,6.09-2.52,11.11Z"></path>
    <path d="M462.54,204.95c0-1.53-.76-2.74-2.28-3.63-1.52-.88-3.96-1.67-7.32-2.37-11.17-2.34-16.76-7.09-16.76-14.24,0-4.17,1.73-7.65,5.19-10.44,3.46-2.79,7.99-4.19,13.57-4.19,5.96,0,10.73,1.41,14.3,4.21,3.58,2.81,5.36,6.46,5.36,10.94h-12.55c0-1.79-.58-3.28-1.74-4.45s-2.97-1.76-5.43-1.76c-2.11,0-3.75,.48-4.91,1.43s-1.74,2.17-1.74,3.65c0,1.39,.66,2.51,1.97,3.37,1.32,.85,3.54,1.59,6.67,2.21,3.13,.62,5.76,1.32,7.9,2.11,6.63,2.43,9.94,6.64,9.94,12.64,0,4.28-1.84,7.75-5.51,10.4s-8.42,3.97-14.24,3.97c-3.94,0-7.43-.7-10.49-2.11-3.05-1.4-5.45-3.33-7.18-5.77-1.74-2.45-2.61-5.09-2.61-7.92h11.9c.11,2.23,.94,3.94,2.47,5.12,1.54,1.19,3.59,1.78,6.17,1.78,2.4,0,4.22-.46,5.45-1.37,1.23-.91,1.84-2.11,1.84-3.58Z"></path>
    <path d="M495.56,170.96l.39,5.25c3.33-4.08,7.83-6.12,13.5-6.12,6.05,0,10.2,2.39,12.46,7.16,3.3-4.78,8.01-7.16,14.11-7.16,5.1,0,8.89,1.48,11.38,4.45,2.49,2.97,3.73,7.43,3.73,13.39v30h-12.59v-29.96c0-2.66-.52-4.61-1.56-5.84-1.04-1.23-2.88-1.85-5.51-1.85-3.76,0-6.37,1.8-7.82,5.38l.04,32.26h-12.55v-29.92c0-2.72-.54-4.69-1.61-5.91s-2.89-1.82-5.47-1.82c-3.56,0-6.14,1.48-7.73,4.43v33.22h-12.55v-46.98h11.77Z"></path>
    <path d="M583.38,218.8c-6.89,0-12.5-2.11-16.83-6.34-4.33-4.23-6.49-9.86-6.49-16.89v-1.22c0-4.72,.91-8.94,2.74-12.66,1.82-3.72,4.41-6.58,7.75-8.6,3.35-2.01,7.16-3.02,11.44-3.02,6.43,0,11.48,2.03,15.18,6.08,3.69,4.05,5.53,9.8,5.53,17.24v5.12h-29.92c.41,3.07,1.63,5.53,3.67,7.38,2.04,1.85,4.63,2.78,7.75,2.78,4.84,0,8.61-1.75,11.33-5.25l6.17,6.9c-1.88,2.66-4.43,4.74-7.64,6.23-3.21,1.49-6.77,2.24-10.68,2.24Zm-1.43-38.6c-2.49,0-4.51,.84-6.06,2.53-1.55,1.69-2.54,4.1-2.98,7.24h17.45v-1c-.06-2.79-.81-4.95-2.26-6.48-1.45-1.53-3.5-2.29-6.17-2.29Z"></path>
    <path d="M625.82,159.41v11.55h8.03v9.2h-8.03v23.45c0,1.74,.33,2.98,1,3.73,.67,.75,1.94,1.13,3.82,1.13,1.39,0,2.62-.1,3.69-.3v9.51c-2.46,.75-4.99,1.13-7.6,1.13-8.8,0-13.29-4.44-13.46-13.33v-25.31h-6.86v-9.2h6.86v-11.55h12.55Z"></path>
    <path d="M641.74,158.8c0-1.88,.63-3.43,1.89-4.65,1.26-1.22,2.97-1.82,5.14-1.82s3.85,.61,5.12,1.82,1.91,2.77,1.91,4.65-.64,3.47-1.93,4.69c-1.29,1.22-2.99,1.82-5.1,1.82s-3.81-.61-5.1-1.82c-1.29-1.22-1.93-2.78-1.93-4.69Zm13.33,59.14h-12.59v-46.98h12.59v46.98Z"></path>
    <path d="M685.92,208.69c2.32,0,4.2-.64,5.64-1.91,1.45-1.27,2.2-2.97,2.26-5.08h11.77c-.03,3.19-.9,6.1-2.61,8.75-1.71,2.65-4.05,4.71-7.01,6.17-2.97,1.46-6.25,2.19-9.84,2.19-6.71,0-12.01-2.13-15.89-6.4-3.88-4.27-5.82-10.17-5.82-17.69v-.82c0-7.24,1.93-13.01,5.77-17.32,3.85-4.31,9.13-6.47,15.85-6.47,5.88,0,10.59,1.67,14.13,5.01,3.55,3.34,5.35,7.79,5.41,13.35h-11.77c-.06-2.44-.81-4.43-2.26-5.96-1.45-1.53-3.36-2.29-5.73-2.29-2.92,0-5.13,1.07-6.62,3.2-1.49,2.13-2.24,5.59-2.24,10.37v1.3c0,4.84,.74,8.32,2.21,10.44,1.48,2.12,3.72,3.17,6.73,3.17Z"></path>
    <path d="M353.51,244.29v11.55h8.03v9.2h-8.03v23.45c0,1.74,.33,2.98,1,3.73,.67,.75,1.94,1.13,3.82,1.13,1.39,0,2.62-.1,3.69-.3v9.51c-2.46,.75-4.99,1.13-7.6,1.13-8.8,0-13.29-4.44-13.46-13.33v-25.31h-6.86v-9.2h6.86v-11.55h12.55Z"></path>
    <path d="M391.14,303.69c-6.89,0-12.5-2.11-16.83-6.34-4.33-4.23-6.49-9.86-6.49-16.89v-1.22c0-4.72,.91-8.94,2.74-12.66,1.82-3.72,4.41-6.58,7.75-8.6,3.35-2.01,7.16-3.02,11.44-3.02,6.43,0,11.48,2.03,15.18,6.08,3.69,4.05,5.53,9.8,5.53,17.24v5.12h-29.92c.41,3.07,1.63,5.53,3.67,7.38,2.04,1.85,4.63,2.78,7.75,2.78,4.84,0,8.61-1.75,11.33-5.25l6.17,6.9c-1.88,2.66-4.43,4.74-7.64,6.23s-6.77,2.24-10.68,2.24Zm-1.43-38.6c-2.49,0-4.51,.84-6.06,2.53-1.55,1.69-2.54,4.1-2.98,7.24h17.45v-1c-.06-2.79-.81-4.95-2.26-6.48-1.45-1.53-3.5-2.29-6.17-2.29Z"></path>
    <path d="M444,289.83c0-1.53-.76-2.74-2.28-3.63-1.52-.88-3.96-1.67-7.32-2.37-11.17-2.34-16.76-7.09-16.76-14.24,0-4.17,1.73-7.65,5.19-10.44,3.46-2.79,7.99-4.19,13.57-4.19,5.96,0,10.73,1.41,14.3,4.21,3.58,2.81,5.36,6.46,5.36,10.94h-12.55c0-1.79-.58-3.28-1.74-4.45s-2.97-1.76-5.43-1.76c-2.11,0-3.75,.48-4.91,1.43s-1.74,2.17-1.74,3.65c0,1.39,.66,2.51,1.97,3.37,1.32,.85,3.54,1.59,6.67,2.21,3.13,.62,5.76,1.32,7.9,2.11,6.63,2.43,9.94,6.64,9.94,12.64,0,4.28-1.84,7.75-5.51,10.4s-8.42,3.97-14.24,3.97c-3.94,0-7.43-.7-10.49-2.11-3.05-1.4-5.45-3.33-7.18-5.77-1.74-2.45-2.61-5.09-2.61-7.92h11.9c.11,2.23,.94,3.94,2.47,5.12,1.54,1.19,3.59,1.78,6.17,1.78,2.4,0,4.22-.46,5.45-1.37,1.23-.91,1.84-2.11,1.84-3.58Z"></path>
    <path d="M480.28,244.29v11.55h8.03v9.2h-8.03v23.45c0,1.74,.33,2.98,1,3.73,.67,.75,1.94,1.13,3.82,1.13,1.39,0,2.62-.1,3.69-.3v9.51c-2.46,.75-4.99,1.13-7.6,1.13-8.8,0-13.29-4.44-13.46-13.33v-25.31h-6.86v-9.2h6.86v-11.55h12.55Z"></path>
    <path d="M496.19,243.68c0-1.88,.63-3.43,1.89-4.65,1.26-1.22,2.97-1.82,5.14-1.82s3.85,.61,5.12,1.82,1.91,2.77,1.91,4.65-.64,3.47-1.93,4.69c-1.29,1.22-2.99,1.82-5.1,1.82s-3.81-.61-5.1-1.82c-1.29-1.22-1.93-2.78-1.93-4.69Zm13.33,59.14h-12.59v-46.98h12.59v46.98Z"></path>
    <path d="M532.38,255.84l.39,5.43c3.36-4.2,7.86-6.3,13.5-6.3,4.98,0,8.68,1.46,11.12,4.39,2.43,2.92,3.67,7.29,3.73,13.11v30.35h-12.55v-30.05c0-2.66-.58-4.59-1.74-5.8-1.16-1.2-3.08-1.8-5.77-1.8-3.53,0-6.18,1.51-7.95,4.52v33.13h-12.55v-46.98h11.81Z"></path>
    <path d="M569.79,278.98c0-7.21,1.72-13.01,5.14-17.41,3.43-4.4,8.06-6.6,13.87-6.6,5.15,0,9.16,1.77,12.03,5.3l.52-4.43h11.38v45.42c0,4.11-.93,7.69-2.8,10.72-1.86,3.04-4.49,5.35-7.88,6.95-3.39,1.59-7.35,2.39-11.9,2.39-3.45,0-6.8-.69-10.07-2.06-3.27-1.38-5.75-3.15-7.42-5.32l5.56-7.64c3.13,3.5,6.92,5.25,11.38,5.25,3.33,0,5.92-.89,7.77-2.67,1.85-1.78,2.78-4.31,2.78-7.58v-2.52c-2.89,3.27-6.7,4.91-11.42,4.91-5.64,0-10.21-2.21-13.7-6.62-3.49-4.41-5.23-10.27-5.23-17.56v-.52Zm12.55,.93c0,4.26,.85,7.6,2.56,10.02,1.71,2.42,4.05,3.63,7.03,3.63,3.82,0,6.56-1.43,8.21-4.3v-19.79c-1.68-2.87-4.39-4.3-8.12-4.3-3.01,0-5.38,1.23-7.1,3.7-1.72,2.47-2.58,6.15-2.58,11.04Z"></path>
    <path d="M351.73,387.7h-12.59v-66.69h12.59v66.69Z"></path>
    <path d="M390.27,387.7c-.58-1.13-1-2.53-1.26-4.21-3.04,3.39-6.99,5.08-11.85,5.08-4.6,0-8.42-1.33-11.44-3.99-3.03-2.66-4.54-6.02-4.54-10.07,0-4.98,1.85-8.8,5.53-11.46,3.69-2.66,9.03-4.01,16-4.04h5.77v-2.69c0-2.17-.56-3.91-1.67-5.21-1.12-1.3-2.87-1.95-5.28-1.95-2.11,0-3.77,.51-4.97,1.52-1.2,1.01-1.8,2.4-1.8,4.17h-12.55c0-2.72,.84-5.24,2.52-7.56,1.68-2.32,4.05-4.13,7.12-5.45,3.07-1.31,6.51-1.97,10.33-1.97,5.79,0,10.39,1.45,13.78,4.37,3.4,2.91,5.1,6.99,5.1,12.26v20.36c.03,4.46,.65,7.83,1.87,10.12v.74h-12.68Zm-10.38-8.73c1.85,0,3.56-.41,5.12-1.24,1.56-.83,2.72-1.93,3.47-3.32v-8.08h-4.69c-6.28,0-9.62,2.17-10.03,6.51l-.04,.74c0,1.56,.55,2.85,1.65,3.86s2.61,1.52,4.52,1.52Z"></path>
    <path d="M454.03,364.65c0,7.53-1.61,13.39-4.82,17.61-3.21,4.21-7.7,6.32-13.46,6.32-5.1,0-9.16-1.95-12.2-5.86l-.56,4.99h-11.29v-66.69h12.55v23.92c2.89-3.39,6.7-5.08,11.42-5.08,5.73,0,10.23,2.11,13.48,6.32,3.26,4.22,4.89,10.14,4.89,17.78v.69Zm-12.55-.91c0-4.75-.75-8.21-2.26-10.4-1.5-2.19-3.75-3.28-6.73-3.28-3.99,0-6.75,1.63-8.25,4.91v18.54c1.54,3.3,4.31,4.95,8.34,4.95s6.71-2,7.99-5.99c.61-1.91,.91-4.82,.91-8.73Z"></path>
  </g>
  <g>
    <path class="cls-1" d="M758.74,196.3c0-3.97,.79-7.56,2.37-10.74,1.57-3.19,3.78-5.64,6.63-7.35,2.85-1.71,6.13-2.57,9.83-2.57,5.47,0,9.92,1.76,13.33,5.29,3.41,3.52,5.25,8.2,5.53,14.02l.04,2.14c0,4-.77,7.57-2.31,10.72s-3.74,5.59-6.6,7.31c-2.87,1.72-6.17,2.59-9.92,2.59-5.72,0-10.3-1.91-13.74-5.72-3.44-3.81-5.16-8.89-5.16-15.24v-.45Zm9.12,.79c0,4.18,.86,7.44,2.58,9.8,1.73,2.36,4.13,3.54,7.2,3.54s5.47-1.2,7.18-3.6,2.57-5.91,2.57-10.54c0-4.1-.88-7.35-2.64-9.75-1.77-2.4-4.16-3.6-7.18-3.6s-5.34,1.18-7.09,3.54c-1.74,2.36-2.62,5.9-2.62,10.59Z"></path>
    <path class="cls-1" d="M813.47,176.39l.27,4.69c3-3.62,6.93-5.44,11.81-5.44,8.45,0,12.75,4.84,12.9,14.51v26.81h-9.11v-26.29c0-2.57-.56-4.48-1.67-5.72-1.11-1.24-2.93-1.86-5.46-1.86-3.67,0-6.41,1.66-8.21,4.99v28.87h-9.11v-40.57h8.58Z"></path>
    <path class="cls-1" d="M858.27,216.96h-9.11v-57.6h9.11v57.6Z"></path>
    <path class="cls-1" d="M869.05,165.85c0-1.4,.44-2.56,1.33-3.49,.88-.92,2.16-1.39,3.81-1.39s2.92,.46,3.82,1.39c.9,.93,1.35,2.09,1.35,3.49s-.45,2.52-1.35,3.43c-.9,.91-2.17,1.37-3.82,1.37s-2.92-.46-3.81-1.37c-.89-.91-1.33-2.06-1.33-3.43Zm9.67,51.11h-9.11v-40.57h9.11v40.57Z"></path>
    <path class="cls-1" d="M897.94,176.39l.26,4.69c3-3.62,6.94-5.44,11.81-5.44,8.46,0,12.75,4.84,12.9,14.51v26.81h-9.11v-26.29c0-2.57-.56-4.48-1.67-5.72-1.11-1.24-2.94-1.86-5.46-1.86-3.67,0-6.41,1.66-8.21,4.99v28.87h-9.11v-40.57h8.59Z"></path>
    <path class="cls-1" d="M950.91,217.71c-5.78,0-10.46-1.82-14.04-5.46-3.58-3.64-5.38-8.48-5.38-14.53v-1.12c0-4.05,.78-7.67,2.34-10.86,1.56-3.19,3.76-5.67,6.58-7.44,2.83-1.77,5.98-2.66,9.45-2.66,5.53,0,9.79,1.76,12.8,5.29,3.02,3.52,4.52,8.51,4.52,14.96v3.67h-26.51c.28,3.35,1.4,6,3.36,7.95,1.97,1.95,4.44,2.92,7.41,2.92,4.18,0,7.58-1.69,10.2-5.06l4.92,4.69c-1.63,2.43-3.8,4.31-6.51,5.64-2.72,1.34-5.76,2.01-9.13,2.01Zm-1.09-34.76c-2.49,0-4.52,.88-6.06,2.62-1.54,1.75-2.52,4.19-2.94,7.31h17.36v-.67c-.2-3.05-1.01-5.36-2.43-6.92-1.43-1.56-3.4-2.34-5.93-2.34Z"></path>
    <path class="cls-1" d="M783.19,290.82c0-1.62-.66-2.86-2.01-3.71-1.33-.85-3.55-1.6-6.66-2.25-3.09-.65-5.68-1.47-7.76-2.47-4.55-2.2-6.83-5.39-6.83-9.56,0-3.5,1.48-6.42,4.43-8.77,2.95-2.35,6.7-3.52,11.25-3.52,4.85,0,8.77,1.2,11.75,3.6s4.48,5.51,4.48,9.34h-9.12c0-1.75-.65-3.21-1.95-4.37-1.29-1.16-3.02-1.74-5.17-1.74-2,0-3.63,.46-4.89,1.39-1.26,.93-1.89,2.16-1.89,3.71,0,1.4,.59,2.49,1.76,3.26,1.18,.78,3.55,1.56,7.13,2.34,3.58,.79,6.38,1.72,8.42,2.81,2.04,1.09,3.55,2.39,4.54,3.92,.99,1.53,1.48,3.37,1.48,5.55,0,3.65-1.52,6.61-4.54,8.87-3.02,2.26-6.99,3.39-11.89,3.39-3.32,0-6.28-.6-8.89-1.8-2.6-1.2-4.62-2.85-6.07-4.95s-2.18-4.36-2.18-6.79h8.85c.13,2.15,.94,3.81,2.44,4.97,1.5,1.16,3.49,1.74,5.96,1.74s4.23-.46,5.48-1.37c1.25-.91,1.87-2.1,1.87-3.58Z"></path>
    <path class="cls-1" d="M809.91,265.69c2.98-3.45,6.74-5.17,11.29-5.17,8.65,0,13.03,4.94,13.16,14.81v26.51h-9.11v-26.17c0-2.8-.61-4.78-1.82-5.94-1.22-1.16-3-1.74-5.34-1.74-3.66,0-6.38,1.63-8.18,4.87v28.99h-9.11v-57.6h9.11v21.45Z"></path>
    <path class="cls-1" d="M842.71,281.18c0-3.97,.79-7.56,2.37-10.74,1.57-3.19,3.78-5.64,6.63-7.35,2.85-1.71,6.13-2.57,9.83-2.57,5.47,0,9.92,1.76,13.33,5.29,3.41,3.52,5.25,8.2,5.53,14.02l.04,2.14c0,4-.77,7.57-2.31,10.72-1.54,3.15-3.74,5.59-6.6,7.31-2.87,1.72-6.17,2.59-9.92,2.59-5.72,0-10.3-1.91-13.74-5.72-3.44-3.81-5.16-8.89-5.16-15.24v-.45Zm9.12,.79c0,4.18,.86,7.44,2.58,9.8,1.73,2.36,4.13,3.54,7.2,3.54s5.47-1.2,7.18-3.6c1.71-2.4,2.57-5.91,2.57-10.54,0-4.1-.88-7.35-2.64-9.75-1.77-2.4-4.16-3.6-7.18-3.6s-5.34,1.18-7.09,3.54c-1.74,2.36-2.62,5.9-2.62,10.59Z"></path>
    <path class="cls-1" d="M924.52,281.97c0,6.28-1.43,11.28-4.28,15.02-2.85,3.74-6.67,5.61-11.47,5.61-4.45,0-8.01-1.46-10.69-4.39v19.24h-9.11v-56.17h8.4l.37,4.12c2.68-3.25,6.32-4.87,10.92-4.87,4.95,0,8.83,1.84,11.64,5.53,2.82,3.69,4.22,8.81,4.22,15.36v.56Zm-9.08-.79c0-4.05-.81-7.26-2.42-9.64-1.61-2.37-3.92-3.56-6.92-3.56-3.73,0-6.4,1.54-8.03,4.61v18c1.65,3.15,4.35,4.72,8.1,4.72,2.9,0,5.17-1.17,6.81-3.51,1.63-2.34,2.46-5.88,2.46-10.63Z"></path>
  </g>
</svg>
